<svg viewBox="0 0 5 5" width="500px" height="500px" xmlns="http://www.w3.org/2000/svg">
    <g id="grid" stroke="gray" stroke-width="0.01">
        <!-- horizontal lines -->
        <line x1="0" y1="0" x2="5" y2="0"/>
        <line x1="0" y1="1" x2="5" y2="1"/>
        <line x1="0" y1="2" x2="5" y2="2"/>
        <line x1="0" y1="3" x2="5" y2="3"/>
        <line x1="0" y1="4" x2="5" y2="4"/>
        <line x1="0" y1="5" x2="5" y2="5"/>
         <!-- vertical lines -->
        <line x1="0" y1="0" x2="0" y2="5"/>
        <line x1="1" y1="0" x2="1" y2="5"/>
        <line x1="2" y1="0" x2="2" y2="5"/>
        <line x1="3" y1="0" x2="3" y2="5"/>
        <line x1="4" y1="0" x2="4" y2="5"/>
        <line x1="5" y1="0" x2="5" y2="5"/>
    </g>
    <g id="glider" stroke="none" fill="black">
        <rect x="2" y="1" width="1" height="1" rx="0.5"/>
        <rect x="3" y="2" width="1" height="1" rx="0.5"/>
        <rect x="1" y="3" width="1" height="1" rx="0.5"/>
        <rect x="2" y="3" width="1" height="1" rx="0.5"/>
        <rect x="3" y="3" width="1" height="1" rx="0.5"/>
    </g>
</svg>