<?xml version="1.0" encoding="UTF-8" standalone="no"?>
<!DOCTYPE svg PUBLIC "-//W3C//DTD SVG 1.1//EN"
 "http://www.w3.org/Graphics/SVG/1.1/DTD/svg11.dtd">
<!-- Generated by graphviz version 2.43.0 (0)
 -->
<!-- Title: TDD Pages: 1 -->
<svg width="183pt" height="199pt"
 viewBox="0.00 0.00 183.13 199.09" xmlns="http://www.w3.org/2000/svg" xmlns:xlink="http://www.w3.org/1999/xlink">
<g id="graph0" class="graph" transform="scale(1 1) rotate(0) translate(4 195.09)">
<title>TDD</title>
<polygon fill="white" stroke="transparent" points="-4,4 -4,-195.09 179.13,-195.09 179.13,4 -4,4"/>
<!-- Red -->
<g id="node1" class="node">
<title>Red</title>
<ellipse fill="red" stroke="red" cx="36" cy="-36" rx="36" ry="36"/>
<text text-anchor="middle" x="36" y="-32.3" font-family="Times,serif" font-size="14.00">Red</text>
</g>
<!-- Green -->
<g id="node2" class="node">
<title>Green</title>
<ellipse fill="green" stroke="green" cx="36" cy="-155.09" rx="36" ry="36"/>
<text text-anchor="middle" x="36" y="-151.39" font-family="Times,serif" font-size="14.00">Green</text>
</g>
<!-- Red&#45;&gt;Green -->
<g id="edge1" class="edge">
<title>Red&#45;&gt;Green</title>
<path fill="none" stroke="black" d="M36,-72.05C36,-83.61 36,-96.56 36,-108.74"/>
<polygon fill="black" stroke="black" points="32.5,-108.75 36,-118.75 39.5,-108.75 32.5,-108.75"/>
</g>
<!-- Refactor -->
<g id="node3" class="node">
<title>Refactor</title>
<ellipse fill="orange" stroke="orange" cx="139.13" cy="-95.54" rx="36" ry="36"/>
<text text-anchor="middle" x="139.13" y="-91.84" font-family="Times,serif" font-size="14.00">Refactor</text>
</g>
<!-- Green&#45;&gt;Refactor -->
<g id="edge2" class="edge">
<title>Green&#45;&gt;Refactor</title>
<path fill="none" stroke="black" d="M67.22,-137.06C77.23,-131.28 88.45,-124.81 99,-118.72"/>
<polygon fill="black" stroke="black" points="100.75,-121.75 107.66,-113.71 97.25,-115.68 100.75,-121.75"/>
</g>
<!-- Refactor&#45;&gt;Red -->
<g id="edge3" class="edge">
<title>Refactor&#45;&gt;Red</title>
<path fill="none" stroke="black" d="M107.91,-77.52C97.9,-71.74 86.68,-65.26 76.13,-59.17"/>
<polygon fill="black" stroke="black" points="77.88,-56.14 67.47,-54.17 74.38,-62.2 77.88,-56.14"/>
</g>
</g>
</svg>
